<svg id="visual" xmlns="http://www.w3.org/2000/svg" xmlns:xlink="http://www.w3.org/1999/xlink" version="1.1">
    <path d="M0 719L45.7 723.7C91.3 728.3 182.7 737.7 274.2 726.7C365.7 715.7 457.3 684.3 548.8 688.7C640.3 693 731.7 733 823 758.2C914.3 783.3 1005.7 793.7 1097 797C1188.3 800.3 1279.7 796.7 1371.2 769.7C1462.7 742.7 1554.3 692.3 1645.8 683.2C1737.3 674 1828.7 706 1874.3 722L1920 738L1920 1081L1874.3 1081C1828.7 1081 1737.3 1081 1645.8 1081C1554.3 1081 1462.7 1081 1371.2 1081C1279.7 1081 1188.3 1081 1097 1081C1005.7 1081 914.3 1081 823 1081C731.7 1081 640.3 1081 548.8 1081C457.3 1081 365.7 1081 274.2 1081C182.7 1081 91.3 1081 45.7 1081L0 1081Z" fill="#24c778"></path>
    <path d="M0 751L45.7 766.2C91.3 781.3 182.7 811.7 274.2 808C365.7 804.3 457.3 766.7 548.8 751.8C640.3 737 731.7 745 823 743.5C914.3 742 1005.7 731 1097 743.5C1188.3 756 1279.7 792 1371.2 806.3C1462.7 820.7 1554.3 813.3 1645.8 815C1737.3 816.7 1828.7 827.3 1874.3 832.7L1920 838L1920 1081L1874.3 1081C1828.7 1081 1737.3 1081 1645.8 1081C1554.3 1081 1462.7 1081 1371.2 1081C1279.7 1081 1188.3 1081 1097 1081C1005.7 1081 914.3 1081 823 1081C731.7 1081 640.3 1081 548.8 1081C457.3 1081 365.7 1081 274.2 1081C182.7 1081 91.3 1081 45.7 1081L0 1081Z" fill="#12bb79"></path>
    <path d="M0 825L45.7 826.2C91.3 827.3 182.7 829.7 274.2 844.5C365.7 859.3 457.3 886.7 548.8 881.8C640.3 877 731.7 840 823 826.7C914.3 813.3 1005.7 823.7 1097 838.5C1188.3 853.3 1279.7 872.7 1371.2 880.2C1462.7 887.7 1554.3 883.3 1645.8 869.5C1737.3 855.7 1828.7 832.3 1874.3 820.7L1920 809L1920 1081L1874.3 1081C1828.7 1081 1737.3 1081 1645.8 1081C1554.3 1081 1462.7 1081 1371.2 1081C1279.7 1081 1188.3 1081 1097 1081C1005.7 1081 914.3 1081 823 1081C731.7 1081 640.3 1081 548.8 1081C457.3 1081 365.7 1081 274.2 1081C182.7 1081 91.3 1081 45.7 1081L0 1081Z" fill="#00ae78"></path>
    <path d="M0 977L45.7 974.8C91.3 972.7 182.7 968.3 274.2 950.3C365.7 932.3 457.3 900.7 548.8 891.5C640.3 882.3 731.7 895.7 823 908.5C914.3 921.3 1005.7 933.7 1097 939C1188.3 944.3 1279.7 942.7 1371.2 937.3C1462.7 932 1554.3 923 1645.8 922.5C1737.3 922 1828.7 930 1874.3 934L1920 938L1920 1081L1874.3 1081C1828.7 1081 1737.3 1081 1645.8 1081C1554.3 1081 1462.7 1081 1371.2 1081C1279.7 1081 1188.3 1081 1097 1081C1005.7 1081 914.3 1081 823 1081C731.7 1081 640.3 1081 548.8 1081C457.3 1081 365.7 1081 274.2 1081C182.7 1081 91.3 1081 45.7 1081L0 1081Z" fill="#00a176"></path>
    <path d="M0 998L45.7 1002.2C91.3 1006.3 182.7 1014.7 274.2 1010.8C365.7 1007 457.3 991 548.8 986.5C640.3 982 731.7 989 823 990.7C914.3 992.3 1005.7 988.7 1097 991.7C1188.3 994.7 1279.7 1004.3 1371.2 999.2C1462.7 994 1554.3 974 1645.8 972.2C1737.3 970.3 1828.7 986.7 1874.3 994.8L1920 1003L1920 1081L1874.3 1081C1828.7 1081 1737.3 1081 1645.8 1081C1554.3 1081 1462.7 1081 1371.2 1081C1279.7 1081 1188.3 1081 1097 1081C1005.7 1081 914.3 1081 823 1081C731.7 1081 640.3 1081 548.8 1081C457.3 1081 365.7 1081 274.2 1081C182.7 1081 91.3 1081 45.7 1081L0 1081Z" fill="#009473"></path>
</svg>