<?xml version="1.0" encoding="utf-8"?>
<!-- Generator: Adobe Illustrator 19.2.1, SVG Export Plug-In . SVG Version: 6.00 Build 0)  -->
<svg version="1.1" id="layer" xmlns="http://www.w3.org/2000/svg" xmlns:xlink="http://www.w3.org/1999/xlink" x="0px" y="0px"
	 viewBox="0 0 652 652" style="enable-background:new 0 0 652 652;" xml:space="preserve">
<style type="text/css">
	.st0{fill:#A585B9;}
	.st1{fill:#287DBD;}
</style>
<path id="Shape" class="st0" d="M162.7,254.1v76.1c10.5,1,18.9,16,18.9,34.3c0,13.8-4.7,25.7-11.6,31.2h20.6
	c15.4-16.4,24-38.1,24-60.6C214.5,300.3,194.2,268.7,162.7,254.1z M173,299.5c-4-0.2-7.1-3.7-6.9-7.7c-0.2-4,2.9-7.5,6.9-7.7
	c2.8,0.1,5.3,1.9,6.3,4.5c-0.8-1.2-2.1-2-3.5-2h-0.1c0.6,0.4,0.9,1.1,0.9,1.8c0.1,0.7-0.3,1.4-0.9,1.8c-0.6,0.4-1.4,0.4-2,0
	c-0.6-0.4-1-1.1-0.9-1.8c0-0.2,0-0.4,0.1-0.6c-1,1-1.5,2.3-1.5,3.7c-0.1,2.6,1.8,4.8,4.4,4.9c1.8-0.1,3.3-1.2,4-2.8
	C179.2,296.9,176.4,299.3,173,299.5L173,299.5z"/>
<path class="st1" d="M120.3,245.4c-1,0-2,0-2.9,0l0.3,51.1H58c4.2-16.8,12.7-32.2,24.8-44.7C46,265.2,20,297.4,20,335.1
	c0.2,23,9.7,44.8,26.4,60.6h37.4C71.2,383.1,62.3,367.3,58,350h59.7v45.7h34.5V250C141.8,246.9,131.1,245.4,120.3,245.4z M300,395.7
	c-53.4,0-69-16.5-69-62.1v-81.8h39.8v80.7c0,24.4,8.2,29.5,32.4,29.5h41.4c25.8,0,32.4-5,32.4-29.5v-80.7h39.3v81.8
	c0,45.7-15.7,62.1-69.6,62.1H300z M620,338.3v-47.3c0-22.8-11.4-39.3-52.6-39.3h-69.6c-50.7,0-65.3,14.1-65.3,56V341
	c0,38.2,17.8,54.7,63.5,54.7H602v-30H496c-18.6,0-23.9-3.2-23.9-20.7v-6.6H620z M472.1,305.2c0-20.7,6.4-22.8,26.3-22.8h65.8
	c12,0,16.2,2.4,16.2,12v18.6H472.1L472.1,305.2z"/>
</svg>
