<?xml version="1.0" encoding="UTF-8" standalone="no"?>
<!-- Created with Inkscape (http://www.inkscape.org/) -->

<svg
   xmlns:dc="http://purl.org/dc/elements/1.1/"
   xmlns:cc="http://creativecommons.org/ns#"
   xmlns:rdf="http://www.w3.org/1999/02/22-rdf-syntax-ns#"
   xmlns:svg="http://www.w3.org/2000/svg"
   xmlns="http://www.w3.org/2000/svg"
   xmlns:sodipodi="http://sodipodi.sourceforge.net/DTD/sodipodi-0.dtd"
   xmlns:inkscape="http://www.inkscape.org/namespaces/inkscape"
   width="177.00626mm"
   height="94.37188mm"
   viewBox="0 0 177.00626 94.37188"
   version="1.1"
   id="svg1283"
   inkscape:version="0.92.3 (2405546, 2018-03-11)"
   sodipodi:docname="knox.svg">
  <defs
     id="defs1277">
    <linearGradient
       id="SVGID_1_-7"
       gradientUnits="userSpaceOnUse"
       x1="-6873.6479"
       y1="2774.2998"
       x2="-6636.2373"
       y2="2496.6895"
       gradientTransform="matrix(0.4345,-0.9318,-0.9318,-0.4345,6223.4761,-5052.7427)">
      <stop
         offset="0"
         style="stop-color:#F59723"
         id="stop3172-5" />
      <stop
         offset="0.3123"
         style="stop-color:#F69822"
         id="stop3174-3" />
      <stop
         offset="0.8383"
         style="stop-color:#E87726"
         id="stop3176-5" />
    </linearGradient>
    <linearGradient
       id="SVGID_2_-6"
       gradientUnits="userSpaceOnUse"
       x1="-8630.7197"
       y1="2804.9607"
       x2="-6936.9253"
       y2="2804.9607"
       gradientTransform="matrix(0.4345,-0.9318,-0.9318,-0.4345,6223.4761,-5052.7427)">
      <stop
         offset="0.3233"
         style="stop-color:#9C2063"
         id="stop3197-2" />
      <stop
         offset="0.6302"
         style="stop-color:#C82037"
         id="stop3199-9" />
      <stop
         offset="0.7514"
         style="stop-color:#CC2135"
         id="stop3201-1" />
      <stop
         offset="1"
         style="stop-color:#E87726"
         id="stop3203-2" />
    </linearGradient>
    <linearGradient
       id="SVGID_3_-7"
       gradientUnits="userSpaceOnUse"
       x1="-8426.2559"
       y1="2635.2839"
       x2="-7416.9194"
       y2="2635.2839"
       gradientTransform="matrix(0.4345,-0.9318,-0.9318,-0.4345,6223.4761,-5052.7427)">
      <stop
         offset="0"
         style="stop-color:#282661"
         id="stop3208-0" />
      <stop
         offset="9.548389e-02"
         style="stop-color:#662E8C"
         id="stop3210-9" />
      <stop
         offset="0.7882"
         style="stop-color:#9E2064"
         id="stop3212-3" />
      <stop
         offset="0.9487"
         style="stop-color:#CC2032"
         id="stop3214-6" />
    </linearGradient>
    <linearGradient
       id="SVGID_4_-0"
       gradientUnits="userSpaceOnUse"
       x1="-8535.5879"
       y1="2820.8604"
       x2="-6841.793"
       y2="2820.8604"
       gradientTransform="matrix(0.4345,-0.9318,-0.9318,-0.4345,6223.4761,-5052.7427)">
      <stop
         offset="0.3233"
         style="stop-color:#9C2063"
         id="stop3219-6" />
      <stop
         offset="0.6302"
         style="stop-color:#C82037"
         id="stop3221-2" />
      <stop
         offset="0.7514"
         style="stop-color:#CC2135"
         id="stop3223-6" />
      <stop
         offset="1"
         style="stop-color:#E87726"
         id="stop3225-1" />
    </linearGradient>
    <linearGradient
       id="SVGID_5_-8"
       gradientUnits="userSpaceOnUse"
       x1="-8412.0576"
       y1="2797.8789"
       x2="-7521.9175"
       y2="2797.8789"
       gradientTransform="matrix(0.4345,-0.9318,-0.9318,-0.4345,6223.4761,-5052.7427)">
      <stop
         offset="0"
         style="stop-color:#282661"
         id="stop3230-7" />
      <stop
         offset="9.548389e-02"
         style="stop-color:#662E8C"
         id="stop3232-9" />
      <stop
         offset="0.7882"
         style="stop-color:#9E2064"
         id="stop3234-2" />
      <stop
         offset="0.9487"
         style="stop-color:#CC2032"
         id="stop3236-0" />
    </linearGradient>
    <linearGradient
       id="SVGID_6_-2"
       gradientUnits="userSpaceOnUse"
       x1="-8535.5879"
       y1="2645.4897"
       x2="-6841.793"
       y2="2645.4897"
       gradientTransform="matrix(0.4345,-0.9318,-0.9318,-0.4345,6223.4761,-5052.7427)">
      <stop
         offset="0.3233"
         style="stop-color:#9C2063"
         id="stop3241-3" />
      <stop
         offset="0.6302"
         style="stop-color:#C82037"
         id="stop3243-7" />
      <stop
         offset="0.7514"
         style="stop-color:#CC2135"
         id="stop3245-5" />
      <stop
         offset="1"
         style="stop-color:#E87726"
         id="stop3247-9" />
    </linearGradient>
    <linearGradient
       id="SVGID_7_-2"
       gradientUnits="userSpaceOnUse"
       x1="-8640.6592"
       y1="2654.2649"
       x2="-6946.8647"
       y2="2654.2649"
       gradientTransform="matrix(0.4345,-0.9318,-0.9318,-0.4345,6223.4761,-5052.7427)">
      <stop
         offset="0.3233"
         style="stop-color:#9C2063"
         id="stop3252-2" />
      <stop
         offset="0.6302"
         style="stop-color:#C82037"
         id="stop3254-8" />
      <stop
         offset="0.7514"
         style="stop-color:#CC2135"
         id="stop3256-9" />
      <stop
         offset="1"
         style="stop-color:#E87726"
         id="stop3258-7" />
    </linearGradient>
    <linearGradient
       id="SVGID_8_-3"
       gradientUnits="userSpaceOnUse"
       x1="-8535.5889"
       y1="2593.446"
       x2="-6841.7925"
       y2="2593.446"
       gradientTransform="matrix(0.4345,-0.9318,-0.9318,-0.4345,6223.4761,-5052.7427)">
      <stop
         offset="0.3233"
         style="stop-color:#9C2063"
         id="stop3267-6" />
      <stop
         offset="0.6302"
         style="stop-color:#C82037"
         id="stop3269-1" />
      <stop
         offset="0.7514"
         style="stop-color:#CC2135"
         id="stop3271-2" />
      <stop
         offset="1"
         style="stop-color:#E87726"
         id="stop3273-9" />
    </linearGradient>
    <linearGradient
       id="SVGID_9_-3"
       gradientUnits="userSpaceOnUse"
       x1="-8535.5889"
       y1="2599.3242"
       x2="-6841.7925"
       y2="2599.3242"
       gradientTransform="matrix(0.4345,-0.9318,-0.9318,-0.4345,6223.4761,-5052.7427)">
      <stop
         offset="0.3233"
         style="stop-color:#9C2063"
         id="stop3282-1" />
      <stop
         offset="0.6302"
         style="stop-color:#C82037"
         id="stop3284-9" />
      <stop
         offset="0.7514"
         style="stop-color:#CC2135"
         id="stop3286-4" />
      <stop
         offset="1"
         style="stop-color:#E87726"
         id="stop3288-7" />
    </linearGradient>
    <linearGradient
       id="SVGID_10_-8"
       gradientUnits="userSpaceOnUse"
       x1="-7584.0386"
       y1="2600.5515"
       x2="-7209.6543"
       y2="2600.5515"
       gradientTransform="matrix(0.4345,-0.9318,-0.9318,-0.4345,6223.4761,-5052.7427)">
      <stop
         offset="0.3233"
         style="stop-color:#9C2063"
         id="stop3297-4" />
      <stop
         offset="0.6302"
         style="stop-color:#C82037"
         id="stop3299-5" />
      <stop
         offset="0.7514"
         style="stop-color:#CC2135"
         id="stop3301-0" />
      <stop
         offset="1"
         style="stop-color:#E87726"
         id="stop3303-3" />
    </linearGradient>
  </defs>
  <sodipodi:namedview
     id="base"
     pagecolor="#ffffff"
     bordercolor="#666666"
     borderopacity="1.0"
     inkscape:pageopacity="0.0"
     inkscape:pageshadow="2"
     inkscape:zoom="1.4"
     inkscape:cx="174.29742"
     inkscape:cy="327.38563"
     inkscape:document-units="mm"
     inkscape:current-layer="g1839"
     showgrid="false"
     fit-margin-top="0"
     fit-margin-left="0"
     fit-margin-right="0"
     fit-margin-bottom="0"
     inkscape:window-width="3726"
     inkscape:window-height="2049"
     inkscape:window-x="114"
     inkscape:window-y="55"
     inkscape:window-maximized="1" />
  <metadata
     id="metadata1280">
    <rdf:RDF>
      <cc:Work
         rdf:about="">
        <dc:format>image/svg+xml</dc:format>
        <dc:type
           rdf:resource="http://purl.org/dc/dcmitype/StillImage" />
        <dc:title></dc:title>
      </cc:Work>
    </rdf:RDF>
  </metadata>
  <g
     inkscape:label="Layer 1"
     inkscape:groupmode="layer"
     id="layer1"
     transform="translate(165.93465,-231.95388)">
    <g
       id="g1839"
       transform="translate(-8.2853557,71.628233)">
      <path
         style="fill:#72b74f;fill-opacity:1;stroke-width:0.26458335"
         d="m -41.413755,240.9981 c -0.109157,-0.54578 -0.305147,-0.74796 -0.725062,-0.74796 -0.316508,0 -0.714769,-0.1393 -0.885023,-0.30956 -0.23635,-0.23635 -0.546069,-0.23172 -1.309688,0.0196 -0.708975,0.23332 -1.204031,0.25133 -1.700533,0.0619 -0.385217,-0.147 -0.762267,-0.2054 -0.837885,-0.12978 -0.229034,0.22903 -4.089225,-0.92561 -5.555014,-1.66159 -6.347273,-3.18702 -10.347053,-8.91359 -11.710321,-16.76594 -0.607,-3.49628 -0.408287,-10.35269 0.387244,-13.36146 1.313428,-4.9675 2.925487,-7.85065 6.228307,-11.13924 2.035181,-2.02641 2.815138,-2.60197 4.921991,-3.63215 2.585543,-1.26425 6.006939,-2.14466 7.703128,-1.9822 l 0.885867,0.0848 v 2.50837 2.50838 l -1.126323,0.62132 c -0.61948,0.34173 -1.274324,0.87983 -1.455209,1.19579 -0.382519,0.66815 -0.62793,30.74373 -0.271319,33.25051 0.198143,1.39283 0.258056,1.48026 1.397643,2.03961 1.300543,0.63836 2.261039,0.78929 1.963965,0.30861 -0.101164,-0.16368 -0.218755,-0.81852 -0.261319,-1.4552 -0.08189,-1.225 0.239803,-1.497 0.824611,-0.69723 0.309862,0.42377 0.362014,0.40468 0.655717,-0.23993 0.289166,-0.63464 0.391845,-0.67494 1.095103,-0.42978 0.42681,0.14878 0.859237,0.18726 0.960951,0.0855 0.101711,-0.10176 0.18493,-7.34858 0.18493,-16.10404 0,-17.77747 0.09139,-16.89786 -1.87003,-17.99809 l -1.040387,-0.58359 v -2.50512 -2.50512 l 0.885868,-0.0848 c 3.08157,-0.29515 8.781357,1.99341 11.75671,4.7205 5.765189,5.28415 8.089313,11.57017 7.775009,21.02893 -0.202454,6.09266 -1.328351,10.13149 -3.866099,13.86849 -0.590349,0.86933 -1.072119,1.67643 -1.070597,1.79355 0.0032,0.24566 5.186254,1.95308 5.89176,1.94089 0.807556,-0.014 3.523292,-1.5274 4.382141,-2.44209 0.451008,-0.48034 2.312186,-3.25459 4.135948,-6.16501 1.823762,-2.91042 3.4644305,-5.29167 3.6459295,-5.29167 0.181499,0 0.909196,1.16522 1.617105,2.58938 l 1.287102,2.58937 -1.522645,2.51668 c -1.905791,3.14996 -2.0354035,4.14704 -0.654688,5.03649 2.143895,1.38108 2.249967,1.5266 2.235912,3.06766 l -0.01304,1.43063 1.315913,0.31259 c 0.7237521,0.17192 1.3668457,0.26165 1.4290969,0.1994 0.062251,-0.0623 -0.077555,-0.3855 -0.310679,-0.71833 -0.7484164,-1.06851 -0.5421366,-2.17321 0.6344708,-3.39782 0.5820834,-0.60584 1.0583334,-1.13836 1.0583334,-1.18339 0,-0.045 -3.8567441,-7.88329 -8.5705456,-17.41835 -8.170939,-16.52816 -8.62202,-17.37055 -9.674604,-18.06711 -1.74407,-1.15417 -2.254438,-2.55292 -1.478788,-4.05286 0.729274,-1.41026 1.267243,-1.47933 11.521851,-1.47933 7.4269447,0 9.57528468,0.077 10.26508258,0.36799 1.94163692,0.81905 2.16415422,3.51196 0.3864478,4.67675 -0.464066,0.30407 -0.6036654,0.58233 -0.4996418,0.9959 0.079396,0.31567 3.85240492,8.13441 8.38446352,17.37498 6.1007869,12.43911 8.4564029,16.99263 9.0732319,17.53901 0.458219,0.40588 1.160547,1.01725 1.560729,1.35859 0.578769,0.49367 0.727605,0.8469 0.727605,1.72682 0,1.38078 -0.330193,2.01326 -1.31762,2.52388 -0.636821,0.32931 -2.183114,0.40289 -8.7895536,0.41821 -4.4092311,0.0102 -8.25491032,0.11228 -8.54595202,0.22677 z m -114.972115,-2.21873 c -0.90275,-0.4899 -1.26342,-1.15009 -1.26342,-2.31261 0,-1.16279 0.76338,-2.12656 2.11171,-2.66606 l 1.06329,-0.42544 v -17.60634 -17.60633 l -1.15977,-0.49714 c -1.419,-0.60826 -2.01523,-1.40802 -2.01523,-2.70318 0,-1.2827 0.86861,-2.29046 2.24896,-2.60925 1.37796,-0.31824 17.40745,-0.31824 18.78542,0 2.82227,0.65179 3.05325,3.82083 0.37731,5.17682 -0.68053,0.34485 -1.31171,0.82086 -1.40263,1.05779 -0.21688,0.56519 -0.21521,16.61836 0.002,17.18386 0.12557,0.32724 0.28496,0.17223 0.64132,-0.62373 0.26082,-0.58256 2.32977,-3.67417 4.59766,-6.87024 4.64172,-6.54143 4.90876,-6.98493 4.91104,-8.15626 0.003,-1.33758 -0.23672,-1.65442 -1.87379,-2.48082 -1.72178,-0.86914 -2.09334,-1.36069 -2.09334,-2.7693 0,-1.32102 1.09578,-2.4047 2.66896,-2.63952 0.64213,-0.0958 3.90594,-0.1358 7.25292,-0.0888 5.08204,0.0714 6.2187,0.15852 6.8938,0.52862 1.37872,0.75586 1.8168,2.42743 1.03326,3.94263 -0.30349,0.58689 -0.97438,1.04963 -2.63212,1.81551 -1.34376,0.62082 -2.77122,1.53483 -3.6046,2.30807 -1.42176,1.31913 -4.46847,5.25005 -4.46847,5.7653 0,0.4764 9.76956,25.87201 10.21344,26.54946 0.22487,0.34319 0.81988,0.86649 1.32225,1.16289 1.08055,0.63754 1.4289,1.20573 1.4289,2.33067 0,1.10715 -0.3854,1.76415 -1.31762,2.24622 -0.64838,0.33529 -2.3474,0.39962 -10.55519,0.39962 h -9.78243 l -0.81405,-0.68498 -0.81405,-0.68498 -0.81405,0.68498 -0.81405,0.68498 -9.70314,-0.0106 c -8.04693,-0.009 -9.82619,-0.0774 -10.42409,-0.40185 z m 23.27669,-4.85548 c 0.32742,-0.16882 0.59474,-0.51112 0.59405,-0.76066 -0.002,-0.72857 -4.9431,-15.39721 -5.12516,-15.21515 -0.0909,0.0909 -0.16525,3.47916 -0.16525,7.52949 0,7.01146 0.0254,7.38959 0.52917,7.8934 0.29104,0.29104 0.687,0.52917 0.87992,0.52917 0.19291,0 0.63101,0.29832 0.97355,0.66294 0.61235,0.65182 0.632,0.65459 1.1706,0.16536 0.30129,-0.27368 0.81569,-0.63572 1.14312,-0.80455 z m 25.83204,4.85651 c -0.89428,-0.44932 -1.42423,-1.34217 -1.42423,-2.39952 0,-0.68573 0.58239,-1.34688 2.60751,-2.96008 2.11608,-1.68567 2.00654,-0.83696 2.15499,-16.69667 0.0966,-10.31799 0.21448,-14.16066 0.43675,-14.23464 0.16745,-0.0557 1.35808,1.60127 2.64584,3.68225 l 2.34137,3.78361 0.13229,10.31875 c 0.12816,9.99676 0.15046,10.35272 0.71468,11.40735 0.36154,0.67579 1.09087,1.4149 1.92326,1.94904 0.737481,0.47324 1.576734,1.16028 1.865008,1.52677 0.721048,0.91666 0.673174,2.24414 -0.113953,3.1599 l -0.638085,0.74235 -5.91035,0.0676 c -4.93297,0.0564 -6.04674,-8e-4 -6.73508,-0.34674 z m 14.434521,-19.86148 -11.757711,-20.27289 -1.68796,-0.8113 c -1.33597,-0.64212 -1.76784,-1.00247 -2.071,-1.72805 -0.3236,-0.77447 -0.32851,-1.06003 -0.0316,-1.84 0.19326,-0.50778 0.68725,-1.17416 1.09774,-1.48083 0.7183,-0.53663 1.07625,-0.56066 9.52482,-0.63945 6.932493,-0.0647 8.87131,-0.009 9.219975,0.26458 0.35574,0.27915 16.233244,27.58296 17.786475,30.58658 0.360196,0.69654 0.425143,1.93237 0.425143,8.08967 0,3.99715 -0.07227,7.45588 -0.160599,7.68606 -0.138928,0.36204 -0.86414,0.41852 -5.374061,0.41852 h -5.213464 z m 19.362524,-2.00541 -2.404774,-4.04775 -0.0104,-5.42395 c -0.01423,-7.43042 -0.181295,-7.98464 -2.966889,-9.84292 -1.689849,-1.12731 -2.163091,-2.05729 -1.770473,-3.47923 0.470734,-1.70486 1.067274,-1.88019 6.740404,-1.98112 6.606434,-0.11754 7.996118,0.27114 8.456012,2.36501 0.248105,1.12962 -0.361376,2.07334 -2.10897,3.26552 -2.744859,1.87251 -2.638941,1.38086 -2.791606,12.95819 -0.09493,7.19939 -0.217887,10.06079 -0.435411,10.13315 -0.166717,0.0555 -1.385271,-1.72065 -2.707897,-3.9469 z m 79.1335525,-7.68585 c -0.151003,-0.18195 -0.7600288,-1.33472 -1.3533861,-2.56171 l -1.0788359,-2.23089 0.8449601,-1.47319 c 1.7275784,-3.01204 1.8907311,-3.43831 1.5783852,-4.12384 -0.1591522,-0.3493 -0.7406138,-0.86539 -1.2921351,-1.14688 -2.0182788,-1.03007 -2.6650845,-2.63304 -1.6906426,-4.18988 0.755023,-1.20628 1.8007198,-1.40212 7.4955379,-1.40382 5.782389,-0.002 6.886191,0.25672 7.514007,1.7593 0.591334,1.41525 -0.0028,2.46409 -2.199536,3.88326 -0.991862,0.64077 -2.059271,1.44869 -2.372016,1.79539 -0.312746,0.3467 -1.947699,2.74372 -3.6332242,5.32672 -1.6855282,2.58299 -3.1712377,4.69635 -3.3015794,4.69635 -0.130339,0 -0.3605319,-0.14886 -0.5115349,-0.33081 z"
         id="path1853"
         inkscape:connector-curvature="0"
         sodipodi:nodetypes="cscccccssscccccccscccccccssccccssccccssscscccccscsscsscccsccscccccsccccssccccccsccsccccscsccsssccccccccccsscsccccscccccsccccccccccsccscccscscccccccsccscccsccsccscccscss" />
      <g
         id="g3169"
         transform="matrix(0.0294586,-0.03633437,-0.03633437,-0.0294586,-5.2384935,280.85064)">
        <linearGradient
           id="linearGradient4274"
           gradientUnits="userSpaceOnUse"
           x1="-6873.6479"
           y1="2774.2998"
           x2="-6636.2373"
           y2="2496.6895"
           gradientTransform="matrix(0.4345,-0.9318,-0.9318,-0.4345,6223.4761,-5052.7427)">
          <stop
             offset="0"
             style="stop-color:#F59723"
             id="stop4276" />
          <stop
             offset="0.3123"
             style="stop-color:#F69822"
             id="stop4278" />
          <stop
             offset="0.8383"
             style="stop-color:#E87726"
             id="stop4280" />
        </linearGradient>
        <path
           d="m 736.1,8.1 c -27.1,16 -72.2,61.3 -125.8,127 l 49.3,93.2 C 694.3,178.8 729.5,134.1 765,96 c 2.8,-3 4.1,-4.4 4.1,-4.4 -1.3,1.4 -2.8,3 -4.1,4.4 -11.5,12.6 -46.4,53.4 -99,134.2 50.7,-2.5 128.5,-12.9 192,-23.7 19,-105.9 -18.5,-154.3 -18.5,-154.3 0,0 -47.6,-77 -103.4,-44.1 z"
           id="path3178"
           inkscape:connector-curvature="0"
           style="fill:url(#SVGID_1_-7)" />
        <path
           d="m 652.5,539.9 c 0.3,-0.1 0.7,-0.1 1.1,-0.2 l -7.1,0.8 c -0.4,0.2 -0.8,0.4 -1.2,0.6 2.3,-0.5 4.8,-0.9 7.2,-1.2 z"
           id="path3180"
           inkscape:connector-curvature="0"
           style="fill:none" />
        <path
           d="m 602,706.9 c -4,0.9 -8.1,1.6 -12.3,2.3 4.2,-0.7 8.3,-1.5 12.3,-2.3 z"
           id="path3182"
           inkscape:connector-curvature="0"
           style="fill:none" />
        <path
           d="m 259.4,1081.4 c 0.5,-1.3 1,-2.8 1.5,-4.1 10.9,-28.7 21.7,-56.6 32.3,-83.8 11.9,-30.5 23.7,-60 35.5,-88.6 12.3,-30.1 24.5,-59.3 36.4,-87.5 12.5,-29.5 24.9,-58 37.1,-85.4 9.9,-22.3 19.6,-43.9 29.2,-64.8 3.2,-7 6.4,-13.9 9.6,-20.7 6.3,-13.6 12.5,-26.8 18.7,-39.8 5.7,-11.9 11.3,-23.6 17,-35.2 1.9,-3.8 3.7,-7.6 5.6,-11.4 0.3,-0.6 0.6,-1.2 0.9,-1.9 l -6.1,0.6 -4.8,-9.5 c -0.5,0.9 -0.9,1.9 -1.4,2.8 -8.6,17.3 -17.3,34.6 -25.8,52.1 -4.9,10.2 -9.8,20.4 -14.7,30.5 -13.5,28.3 -26.7,57 -39.8,85.6 -13.2,29.1 -26.1,58.3 -38.9,87.6 -12.4,28.8 -24.7,57.6 -36.6,86.3 -11.9,28.7 -23.6,57.3 -35,85.6 -11.9,29.6 -23.4,59 -34.6,88 -2.6,6.6 -5,13.1 -7.6,19.6 -9,23.4 -17.8,46.6 -26.3,69.4 l 7.6,15 6.8,-0.7 c 0.2,-0.7 0.5,-1.3 0.7,-2.1 11.1,-29.8 22,-59.1 32.7,-87.6 z"
           id="path3184"
           inkscape:connector-curvature="0"
           style="fill:none" />
        <path
           d="M 586.6,709.6 Z"
           id="path3186"
           inkscape:connector-curvature="0"
           style="fill:none" />
        <path
           d="m 570.2,791 c -6.3,1.1 -12.7,2.3 -19.4,3.4 0,0 -0.1,0 -0.1,0.1 3.4,-0.5 6.7,-1 10,-1.5 3.1,-0.7 6.3,-1.3 9.5,-2 z"
           id="path3188"
           inkscape:connector-curvature="0"
           style="fill:#bd202e" />
        <path
           enable-background="new    "
           d="m 570.2,791 c -6.3,1.1 -12.7,2.3 -19.4,3.4 0,0 -0.1,0 -0.1,0.1 3.4,-0.5 6.7,-1 10,-1.5 3.1,-0.7 6.3,-1.3 9.5,-2 z"
           id="path3190"
           inkscape:connector-curvature="0"
           style="opacity:0.35;fill:#bd202e" />
        <path
           d="m 586.7,709.5 c 0,0 0,0.1 0,0 -0.1,0 -0.1,0 -0.1,0.1 1,-0.1 2.1,-0.3 3.1,-0.5 4.2,-0.6 8.3,-1.3 12.3,-2.3 -5,0.9 -10,1.8 -15.3,2.7 z"
           id="path3192"
           inkscape:connector-curvature="0"
           style="fill:#bd202e" />
        <path
           enable-background="new    "
           d="m 586.7,709.5 c 0,0 0,0.1 0,0 -0.1,0 -0.1,0 -0.1,0.1 1,-0.1 2.1,-0.3 3.1,-0.5 4.2,-0.6 8.3,-1.3 12.3,-2.3 -5,0.9 -10,1.8 -15.3,2.7 z"
           id="path3194"
           inkscape:connector-curvature="0"
           style="opacity:0.35;fill:#bd202e" />
        <linearGradient
           id="linearGradient4291"
           gradientUnits="userSpaceOnUse"
           x1="-8630.7197"
           y1="2804.9607"
           x2="-6936.9253"
           y2="2804.9607"
           gradientTransform="matrix(0.4345,-0.9318,-0.9318,-0.4345,6223.4761,-5052.7427)">
          <stop
             offset="0.3233"
             style="stop-color:#9C2063"
             id="stop4293" />
          <stop
             offset="0.6302"
             style="stop-color:#C82037"
             id="stop4295" />
          <stop
             offset="0.7514"
             style="stop-color:#CC2135"
             id="stop4297" />
          <stop
             offset="1"
             style="stop-color:#E87726"
             id="stop4299" />
        </linearGradient>
        <path
           d="m 514,469.2 c 15,-28.1 30.2,-55.5 45.5,-82.1 15.9,-27.8 32.1,-54.6 48.4,-80.6 0.9,-1.5 2,-3.1 2.9,-4.6 16.1,-25.5 32.4,-50.1 48.7,-73.5 l -49.3,-93.2 c -3.7,4.5 -7.4,9.1 -11.2,13.9 -14.3,17.8 -29,36.8 -44.2,57.1 -17.1,22.8 -34.6,47.2 -52.5,72.8 -16.4,23.6 -33.2,48.3 -50,74 -14.3,21.8 -28.5,44.2 -42.7,67.2 -0.5,0.8 -1,1.7 -1.5,2.6 l 64.3,127 C 486,522.3 500,495.4 514,469.2 Z"
           id="path3205"
           inkscape:connector-curvature="0"
           style="fill:url(#SVGID_2_-6)" />
        <linearGradient
           id="linearGradient4302"
           gradientUnits="userSpaceOnUse"
           x1="-8426.2559"
           y1="2635.2839"
           x2="-7416.9194"
           y2="2635.2839"
           gradientTransform="matrix(0.4345,-0.9318,-0.9318,-0.4345,6223.4761,-5052.7427)">
          <stop
             offset="0"
             style="stop-color:#282661"
             id="stop4304" />
          <stop
             offset="9.548389e-02"
             style="stop-color:#662E8C"
             id="stop4306" />
          <stop
             offset="0.7882"
             style="stop-color:#9E2064"
             id="stop4308" />
          <stop
             offset="0.9487"
             style="stop-color:#CC2032"
             id="stop4310" />
        </linearGradient>
        <path
           d="m 221.2,1184.4 c -8.5,23.3 -17.1,47.2 -25.6,71.5 -0.1,0.3 -0.2,0.7 -0.4,1 -1.2,3.4 -2.5,6.9 -3.6,10.3 -5.8,16.4 -10.8,31.2 -22.3,64.7 18.9,8.6 34.1,31.4 48.5,57.2 -1.5,-26.7 -12.5,-51.8 -33.6,-71.2 93.3,4.2 173.7,-19.4 215.3,-87.6 3.7,-6.1 7.1,-12.4 10.2,-19.3 -18.9,24 -42.4,34.1 -86.5,31.7 -0.1,0 -0.2,0.1 -0.3,0.1 0.1,0 0.2,-0.1 0.3,-0.1 65,-29.1 97.5,-57 126.4,-103.2 6.8,-11 13.5,-22.9 20.3,-36.2 -56.8,58.3 -122.5,74.9 -191.8,62.3 l -52,5.7 c -1.7,4.4 -3.2,8.7 -4.9,13.1 z"
           id="path3216"
           inkscape:connector-curvature="0"
           style="fill:url(#SVGID_3_-7)" />
        <linearGradient
           id="linearGradient4313"
           gradientUnits="userSpaceOnUse"
           x1="-8535.5879"
           y1="2820.8604"
           x2="-6841.793"
           y2="2820.8604"
           gradientTransform="matrix(0.4345,-0.9318,-0.9318,-0.4345,6223.4761,-5052.7427)">
          <stop
             offset="0.3233"
             style="stop-color:#9C2063"
             id="stop4315" />
          <stop
             offset="0.6302"
             style="stop-color:#C82037"
             id="stop4317" />
          <stop
             offset="0.7514"
             style="stop-color:#CC2135"
             id="stop4319" />
          <stop
             offset="1"
             style="stop-color:#E87726"
             id="stop4321" />
        </linearGradient>
        <path
           d="m 245.5,1068.1 c 11.2,-29 22.8,-58.4 34.6,-88 11.4,-28.4 23,-57 35,-85.6 12,-28.6 24.2,-57.5 36.6,-86.3 12.6,-29.3 25.6,-58.5 38.9,-87.6 13.1,-28.8 26.3,-57.4 39.8,-85.6 4.8,-10.2 9.8,-20.4 14.7,-30.5 8.5,-17.5 17.1,-34.9 25.8,-52.1 0.5,-0.9 0.9,-1.9 1.4,-2.8 L 408,422.6 c -1,1.7 -2.1,3.5 -3.2,5.1 -15,24.5 -29.9,49.5 -44.5,75 -14.8,25.8 -29.3,52.1 -43.5,78.8 -11.9,22.5 -23.6,45.1 -35.1,68.1 -2.3,4.6 -4.5,9.3 -6.8,13.9 -14,28.9 -26.6,56.6 -38.1,83.5 -13,30.3 -24.4,59.3 -34.3,86.8 -6.6,18.1 -12.5,35.5 -18,52.3 -4.5,14.3 -8.7,28.7 -12.9,43 -9.6,33.6 -17.9,67.2 -24.7,100.6 l 64.6,127.5 c 8.5,-22.8 17.3,-46 26.3,-69.4 2.7,-6.7 5.1,-13.3 7.7,-19.7 z"
           id="path3227"
           inkscape:connector-curvature="0"
           style="fill:url(#SVGID_4_-0)" />
        <linearGradient
           id="linearGradient4324"
           gradientUnits="userSpaceOnUse"
           x1="-8412.0576"
           y1="2797.8789"
           x2="-7521.9175"
           y2="2797.8789"
           gradientTransform="matrix(0.4345,-0.9318,-0.9318,-0.4345,6223.4761,-5052.7427)">
          <stop
             offset="0"
             style="stop-color:#282661"
             id="stop4326" />
          <stop
             offset="9.548389e-02"
             style="stop-color:#662E8C"
             id="stop4328" />
          <stop
             offset="0.7882"
             style="stop-color:#9E2064"
             id="stop4330" />
          <stop
             offset="0.9487"
             style="stop-color:#CC2032"
             id="stop4332" />
        </linearGradient>
        <path
           d="m 146.2,1034 c -8.1,40.8 -13.9,81.4 -16.8,121.8 -0.1,1.4 -0.2,2.8 -0.3,4.2 -20.2,-32.3 -74.1,-63.8 -74,-63.5 38.7,56 68,111.6 72.3,166.2 -20.7,4.2 -49,-1.9 -81.7,-13.9 34.1,31.4 59.7,40 69.8,42.4 -31.4,2 -64,23.5 -96.9,48.3 48.1,-19.6 87,-27.4 114.8,-21.1 -44.2,125 -88.4,263 -132.7,409.6 13.6,-4 21.7,-13.2 26.2,-25.5 7.9,-26.5 60.2,-200.7 142.3,-429.4 2.4,-6.5 4.7,-13.1 7.1,-19.6 0.6,-1.9 1.3,-3.7 2,-5.4 8.6,-24 17.7,-48.5 26.9,-73.5 2.1,-5.7 4.2,-11.4 6.4,-17.1 0,-0.1 0.1,-0.2 0.1,-0.3 L 147,1029.7 c -0.2,1.3 -0.5,2.8 -0.8,4.3 z"
           id="path3238"
           inkscape:connector-curvature="0"
           style="fill:url(#SVGID_5_-8)" />
        <linearGradient
           id="linearGradient4335"
           gradientUnits="userSpaceOnUse"
           x1="-8535.5879"
           y1="2645.4897"
           x2="-6841.793"
           y2="2645.4897"
           gradientTransform="matrix(0.4345,-0.9318,-0.9318,-0.4345,6223.4761,-5052.7427)">
          <stop
             offset="0.3233"
             style="stop-color:#9C2063"
             id="stop4337" />
          <stop
             offset="0.6302"
             style="stop-color:#C82037"
             id="stop4339" />
          <stop
             offset="0.7514"
             style="stop-color:#CC2135"
             id="stop4341" />
          <stop
             offset="1"
             style="stop-color:#E87726"
             id="stop4343" />
        </linearGradient>
        <path
           d="m 482.3,560.2 c -1.9,3.8 -3.7,7.6 -5.6,11.4 -5.6,11.5 -11.2,23.2 -17,35.2 -6.2,13 -12.4,26.2 -18.7,39.8 -3.2,6.8 -6.4,13.7 -9.6,20.7 -9.6,20.9 -19.3,42.5 -29.2,64.8 -12.1,27.3 -24.6,55.8 -37.1,85.4 -11.9,28.2 -24.2,57.3 -36.4,87.5 -11.7,28.6 -23.5,58.2 -35.5,88.6 -10.7,27.1 -21.5,55.1 -32.3,83.8 -0.5,1.3 -1,2.8 -1.5,4.1 -10.8,28.5 -21.7,57.8 -32.6,87.8 -0.2,0.7 -0.5,1.3 -0.7,2.1 l 52,-5.7 c -1,-0.2 -2.1,-0.3 -3.1,-0.5 62.1,-7.7 144.8,-54.2 198.1,-111.5 24.6,-26.4 46.9,-57.6 67.5,-94.1 15.3,-27.1 29.8,-57.3 43.6,-90.6 12,-29.1 23.5,-60.7 34.6,-94.8 -14.3,7.5 -30.6,13.1 -48.6,16.9 -3.2,0.7 -6.4,1.3 -9.7,1.9 -3.3,0.6 -6.6,1.1 -10,1.5 v 0 0 c 0,0 0.1,0 0.1,-0.1 58,-22.3 94.5,-65.3 121,-118 -15.2,10.4 -40,24 -69.7,30.5 -4,0.9 -8.1,1.6 -12.3,2.3 -1,0.1 -2.1,0.3 -3.1,0.5 v 0 0 h 0.1 c 0,0 0,0 0.1,0 v 0 c 20.2,-8.4 37.1,-17.9 51.8,-29 3.2,-2.4 6.3,-4.8 9.1,-7.4 4.5,-3.9 8.7,-8 12.9,-12.2 2.6,-2.8 5.1,-5.6 7.6,-8.5 5.8,-6.9 11.2,-14.3 16.2,-22.3 1.5,-2.5 3.1,-4.9 4.5,-7.5 2,-3.7 3.8,-7.4 5.6,-10.9 8.1,-16.2 14.6,-30.8 19.7,-43.5 2.6,-6.4 4.8,-12.2 6.8,-17.8 0.8,-2.2 1.5,-4.3 2.2,-6.4 2.1,-6.1 3.7,-11.5 5,-16.3 2,-7.2 3.2,-12.9 3.8,-17 v 0 0 c -2,1.5 -4.2,3.1 -6.8,4.6 -17.5,10.5 -47.5,19.9 -71.7,24.4 l 47.7,-5.2 -47.7,5.2 c -0.3,0.1 -0.7,0.1 -1.1,0.2 -2.5,0.4 -4.8,0.8 -7.3,1.1 0.4,-0.2 0.8,-0.4 1.2,-0.6 l -163.3,17.9 c 0,0.4 -0.3,1.1 -0.6,1.7 z"
           id="path3249"
           inkscape:connector-curvature="0"
           style="fill:url(#SVGID_6_-2)" />
        <linearGradient
           id="linearGradient4346"
           gradientUnits="userSpaceOnUse"
           x1="-8640.6592"
           y1="2654.2649"
           x2="-6946.8647"
           y2="2654.2649"
           gradientTransform="matrix(0.4345,-0.9318,-0.9318,-0.4345,6223.4761,-5052.7427)">
          <stop
             offset="0.3233"
             style="stop-color:#9C2063"
             id="stop4348" />
          <stop
             offset="0.6302"
             style="stop-color:#C82037"
             id="stop4350" />
          <stop
             offset="0.7514"
             style="stop-color:#CC2135"
             id="stop4352" />
          <stop
             offset="1"
             style="stop-color:#E87726"
             id="stop4354" />
        </linearGradient>
        <path
           d="m 666.1,230.2 c -14.5,22.3 -30.3,47.6 -47.5,76.3 -0.9,1.4 -1.9,3.1 -2.7,4.5 -14.7,24.8 -30.3,52 -46.9,81.9 -14.2,25.8 -29,53.4 -44.4,83.1 -13.4,25.9 -27.2,53.4 -41.5,82.5 l 163.3,-17.9 c 47.6,-21.9 68.8,-41.6 89.4,-70.3 5.4,-7.9 11,-16.1 16.4,-24.7 16.8,-26.2 33.2,-55 47.9,-83.7 14.2,-27.7 26.7,-55.1 36.3,-79.9 6.1,-15.7 11,-30.3 14.4,-43.2 3,-11.3 5.3,-22.1 7.1,-32.4 -63.3,10.9 -141.2,21.3 -191.8,23.8 z"
           id="path3260"
           inkscape:connector-curvature="0"
           style="fill:url(#SVGID_7_-2)" />
        <path
           d="m 560.5,792.8 c -3.3,0.6 -6.6,1.1 -10,1.5 v 0 c 3.4,-0.3 6.8,-0.9 10,-1.5 z"
           id="path3262"
           inkscape:connector-curvature="0"
           style="fill:#bd202e" />
        <path
           enable-background="new    "
           d="m 560.5,792.8 c -3.3,0.6 -6.6,1.1 -10,1.5 v 0 c 3.4,-0.3 6.8,-0.9 10,-1.5 z"
           id="path3264"
           inkscape:connector-curvature="0"
           style="opacity:0.35;fill:#bd202e" />
        <linearGradient
           id="linearGradient4359"
           gradientUnits="userSpaceOnUse"
           x1="-8535.5889"
           y1="2593.446"
           x2="-6841.7925"
           y2="2593.446"
           gradientTransform="matrix(0.4345,-0.9318,-0.9318,-0.4345,6223.4761,-5052.7427)">
          <stop
             offset="0.3233"
             style="stop-color:#9C2063"
             id="stop4361" />
          <stop
             offset="0.6302"
             style="stop-color:#C82037"
             id="stop4363" />
          <stop
             offset="0.7514"
             style="stop-color:#CC2135"
             id="stop4365" />
          <stop
             offset="1"
             style="stop-color:#E87726"
             id="stop4367" />
        </linearGradient>
        <path
           d="m 560.5,792.8 c -3.3,0.6 -6.6,1.1 -10,1.5 v 0 c 3.4,-0.3 6.8,-0.9 10,-1.5 z"
           id="path3275"
           inkscape:connector-curvature="0"
           style="fill:url(#SVGID_8_-3)" />
        <path
           d="m 586.6,709.6 c 1,-0.1 2.1,-0.3 3.1,-0.5 -1,0.1 -2,0.4 -3.1,0.5 z"
           id="path3277"
           inkscape:connector-curvature="0"
           style="fill:#bd202e" />
        <path
           enable-background="new    "
           d="m 586.6,709.6 c 1,-0.1 2.1,-0.3 3.1,-0.5 -1,0.1 -2,0.4 -3.1,0.5 z"
           id="path3279"
           inkscape:connector-curvature="0"
           style="opacity:0.35;fill:#bd202e" />
        <linearGradient
           id="linearGradient4372"
           gradientUnits="userSpaceOnUse"
           x1="-8535.5889"
           y1="2599.3242"
           x2="-6841.7925"
           y2="2599.3242"
           gradientTransform="matrix(0.4345,-0.9318,-0.9318,-0.4345,6223.4761,-5052.7427)">
          <stop
             offset="0.3233"
             style="stop-color:#9C2063"
             id="stop4374" />
          <stop
             offset="0.6302"
             style="stop-color:#C82037"
             id="stop4376" />
          <stop
             offset="0.7514"
             style="stop-color:#CC2135"
             id="stop4378" />
          <stop
             offset="1"
             style="stop-color:#E87726"
             id="stop4380" />
        </linearGradient>
        <path
           d="m 586.6,709.6 c 1,-0.1 2.1,-0.3 3.1,-0.5 -1,0.1 -2,0.4 -3.1,0.5 z"
           id="path3290"
           inkscape:connector-curvature="0"
           style="fill:url(#SVGID_9_-3)" />
        <path
           d="m 586.6,709.6 c 0.1,0 0.1,-0.1 0,0 v 0 0 0 c 0.1,-0.1 0.1,0 0,0 z"
           id="path3292"
           inkscape:connector-curvature="0"
           style="fill:#bd202e" />
        <path
           enable-background="new    "
           d="m 586.6,709.6 c 0.1,0 0.1,-0.1 0,0 v 0 0 0 c 0.1,-0.1 0.1,0 0,0 z"
           id="path3294"
           inkscape:connector-curvature="0"
           style="opacity:0.35;fill:#bd202e" />
        <linearGradient
           id="linearGradient4385"
           gradientUnits="userSpaceOnUse"
           x1="-7584.0386"
           y1="2600.5515"
           x2="-7209.6543"
           y2="2600.5515"
           gradientTransform="matrix(0.4345,-0.9318,-0.9318,-0.4345,6223.4761,-5052.7427)">
          <stop
             offset="0.3233"
             style="stop-color:#9C2063"
             id="stop4387" />
          <stop
             offset="0.6302"
             style="stop-color:#C82037"
             id="stop4389" />
          <stop
             offset="0.7514"
             style="stop-color:#CC2135"
             id="stop4391" />
          <stop
             offset="1"
             style="stop-color:#E87726"
             id="stop4393" />
        </linearGradient>
        <path
           d="m 586.6,709.6 c 0.1,0 0.1,-0.1 0,0 v 0 0 0 c 0.1,-0.1 0.1,0 0,0 z"
           id="path3305"
           inkscape:connector-curvature="0"
           style="fill:url(#SVGID_10_-8)" />
      </g>
      <g
         aria-label="APACHE"
         style="font-style:normal;font-variant:normal;font-weight:normal;font-stretch:normal;font-size:38.33166885px;line-height:125%;font-family:'Myriad Pro';-inkscape-font-specification:'Myriad Pro';letter-spacing:0px;word-spacing:0px;fill:#000000;fill-opacity:1;stroke:none;stroke-width:1.39387882px;stroke-linecap:butt;stroke-linejoin:miter;stroke-opacity:1"
         id="text2240">
        <path
           d="m -125.98794,187.3878 -3.0282,-6.86137 h -14.60437 l -2.98987,6.86137 h -3.25819 l 12.03614,-26.83217 h 3.18153 l 11.99782,26.83217 z m -16.36762,-9.69791 h 12.1128 l -6.09473,-13.7994 z"
           style="font-style:normal;font-variant:normal;font-weight:300;font-stretch:normal;font-family:Montserrat;-inkscape-font-specification:'Montserrat Light';stroke-width:1.39387882px"
           id="path2242" />
        <path
           d="m -108.32662,160.55563 q 4.98311,0 7.70466,2.37657 2.759881,2.33823 2.759881,6.63138 0,4.40814 -2.759881,6.86136 -2.72155,2.45323 -7.70466,2.45323 h -7.0147 v 8.50963 h -3.06653 v -26.83217 z m -0.115,15.486 q 3.64151,0 5.63476,-1.60993 1.99324,-1.64826 1.99324,-4.79146 0,-3.06653 -1.99324,-4.63813 -1.99325,-1.60993 -5.63476,-1.60993 h -6.8997 v 12.64945 z"
           style="font-style:normal;font-variant:normal;font-weight:300;font-stretch:normal;font-family:Montserrat;-inkscape-font-specification:'Montserrat Light';stroke-width:1.39387882px"
           id="path2244" />
        <path
           d="m -74.25516,187.3878 -3.028201,-6.86137 h -14.604366 l -2.98987,6.86137 h -3.258192 l 12.036144,-26.83217 h 3.181528 l 11.997813,26.83217 z m -16.367622,-9.69791 h 12.112807 l -6.094735,-13.7994 z"
           style="font-style:normal;font-variant:normal;font-weight:300;font-stretch:normal;font-family:Montserrat;-inkscape-font-specification:'Montserrat Light';stroke-width:1.39387882px"
           id="path2246" />
        <path
           d="m -47.91472,166.49704 q -1.571598,-1.5716 -3.67984,-2.45322 -2.06991,-0.91996 -4.254816,-0.91996 -2.98987,0 -5.51976,1.4566 -2.491558,1.41827 -3.948162,3.90983 -1.456603,2.49156 -1.456603,5.4431 0,2.9132 1.456603,5.40476 1.456604,2.49156 3.948162,3.94816 2.52989,1.45661 5.51976,1.45661 2.184906,0 4.254816,-0.8433 2.06991,-0.88163 3.67984,-2.41489 l 1.878252,2.03157 q -2.031579,1.91659 -4.638132,3.02821 -2.568222,1.07328 -5.328102,1.07328 -3.794835,0 -6.976364,-1.80159 -3.181528,-1.83992 -5.05978,-4.98311 -1.83992,-3.1432 -1.83992,-6.8997 0,-3.71818 1.878251,-6.82304 1.878252,-3.1432 5.059781,-4.94479 3.21986,-1.83992 7.053027,-1.83992 2.721548,0 5.28977,1.03496 2.568222,1.03495 4.523137,2.91321 z"
           style="font-style:normal;font-variant:normal;font-weight:300;font-stretch:normal;font-family:Montserrat;-inkscape-font-specification:'Montserrat Light';stroke-width:1.39387882px"
           id="path2248" />
        <path
           d="m -40.546653,160.55563 h 3.066534 v 12.15114 h 16.175964 v -12.15114 h 3.066533 v 26.83217 h -3.066533 v -11.88282 h -16.175964 v 11.88282 h -3.066534 z"
           style="font-style:normal;font-variant:normal;font-weight:300;font-stretch:normal;font-family:Montserrat;-inkscape-font-specification:'Montserrat Light';stroke-width:1.39387882px"
           id="path2250" />
        <path
           d="M -10.075973,160.55563 H 8.13157 v 2.83655 H -7.0094392 v 9.00794 H 6.5216399 v 2.79821 H -7.0094392 v 9.35293 H 8.6298817 v 2.83654 H -10.075973 Z"
           style="font-style:normal;font-variant:normal;font-weight:300;font-stretch:normal;font-family:Montserrat;-inkscape-font-specification:'Montserrat Light';stroke-width:1.39387882px"
           id="path2252" />
      </g>
    </g>
  </g>
</svg>
