<?xml version="1.0" encoding="utf-8"?>
<!-- Generator: Adobe Illustrator 23.1.1, SVG Export Plug-In . SVG Version: 6.00 Build 0)  -->
<svg version="1.1" id="Layer_1" xmlns="http://www.w3.org/2000/svg" xmlns:xlink="http://www.w3.org/1999/xlink" x="0px" y="0px"
	 viewBox="0 0 639.9 134.8" style="enable-background:new 0 0 639.9 134.8;" xml:space="preserve">
<style type="text/css">
	.st0{fill:#0F3A53;}
	.st1{fill:url(#SVGID_1_);}
	.st2{fill:url(#SVGID_2_);}
	.st3{fill:url(#SVGID_3_);stroke:#FFFFFF;stroke-width:1.85;stroke-miterlimit:10;}
	.st4{enable-background:new    ;}
	.st5{fill:#FFFFFF;}
	.st6{fill:#FFFFFF;stroke:#395E79;stroke-width:0.22;stroke-miterlimit:10;}
</style>
<g>
	<title>Asset 11</title>
	<g>
		<g id="Layer_1-2">
			<path class="st0" d="M183.8,61.1l1.4,32.4h4.8l-1.7,7.4h-19.6l1.7-7.4h4.4v-7.8h-14.3l-4,7.8h4.4l-1.8,7.4h-18l1.7-7.4h4.5
				l17.9-32.4h-4.6l1.7-7.3h27.3l-1.7,7.3L183.8,61.1z M174.5,78.8l-0.6-18.2h-0.4L164,78.8H174.5z"/>
			<path class="st0" d="M229.7,81c0,3.4-0.7,6.8-2.1,9.9c-1.3,3.1-3.4,5.8-6,7.9c-2.6,2-5.8,3.1-9.1,3.1c-3.9,0.1-7.6-2-9.5-5.4
				l-2.9,12.3h5.4l-1.7,7h-20.1l1.6-7h4.7l7.7-33.8h-4.6l1.6-7h14.7l-1.1,4.4l0.1,0.1c3.1-3.2,6.4-4.9,9.9-4.9c2.1,0,4.2,0.6,6,1.8
				c1.7,1.2,3.1,2.9,3.9,4.8C229.3,76.4,229.7,78.7,229.7,81z M210.8,94c1.8,0,3.5-0.7,4.8-2c1.3-1.4,2.3-3.1,2.9-4.9
				c0.6-1.8,1-3.7,1-5.7c0.1-1.6-0.4-3.1-1.4-4.4c-0.9-1.1-2.3-1.7-3.8-1.7c-1.7,0-3.4,0.7-4.6,2c-1.4,1.4-2.5,3-3.2,4.9
				c-0.7,1.7-1.1,3.6-1.1,5.5c0,1.6,0.5,3.2,1.5,4.4C207.8,93.4,209.3,94,210.8,94z"/>
			<path class="st0" d="M265.6,77.2c0,1.2-0.2,2.5-0.5,3.7l-3.1,13h5.5l-2,7h-15.2l0.6-2.6c-3.2,2-6.2,3.1-8.9,3.1
				c-2.6,0.1-5.1-0.8-7-2.5c-1.9-1.6-2.9-4.1-2.8-6.6c0-4.1,1.5-7.1,4.5-9.1s7-3,11.9-3c1.4,0,2.8,0.1,4.2,0.4
				c1.2,0.3,1.9,0.5,2.1,0.5l0.4-1.6c0.2-0.6,0.2-1.2,0.3-1.8c0-1.2-0.6-2.3-1.7-2.9c-1.2-0.8-2.7-1.1-4.1-1.1
				c-2.7,0.1-5.3,0.9-7.6,2.2l-5-4.9c4.4-2.4,9.3-3.7,14.3-3.8c3.5-0.1,7,0.7,10.1,2.5C264.2,71.2,265.8,74.1,265.6,77.2z
				 M245.4,94.9c2,0,4.4-1,7-2.9l1.2-5.4c-1.6-0.4-3.3-0.7-5-0.7c-1.8-0.1-3.5,0.4-5,1.4c-1.3,0.8-2.1,2.3-2.1,3.8
				c0,1,0.4,1.9,1.1,2.6C243.4,94.6,244.4,95,245.4,94.9z"/>
			<path class="st0" d="M298.7,70.2l0.5-2.2h7.4l-2.8,12.3h-7.4c-0.2-3.2-2.1-4.8-5.4-4.8c-1.8,0-3.5,0.6-4.8,1.8
				c-1.4,1.2-2.4,2.8-3,4.5c-0.7,1.8-1,3.7-1,5.6c-0.1,1.6,0.5,3.2,1.5,4.5c1,1.2,2.5,1.9,4.1,1.8c3.1,0,5.6-1.6,7.5-4.9l7.2,3.6
				c-3.8,6.3-9,9.4-15.8,9.4c-2.7,0.1-5.4-0.6-7.9-1.8c-2.2-1.1-4.1-2.9-5.3-5c-1.3-2.4-1.9-5-1.9-7.7c0-3.4,0.8-6.8,2.5-9.7
				c1.6-3,4.1-5.5,7-7.2c2.9-1.7,6.2-2.7,9.6-2.7C293.6,67.7,296.4,68.5,298.7,70.2z"/>
			<path class="st0" d="M336.2,67.6c2-0.1,3.9,0.7,5.3,2.1c1.4,1.6,2.1,3.7,2,5.8c0,1-0.1,2-0.3,2.9c-0.2,1-0.4,1.7-0.4,2.1
				l-3.2,13.2h4.4l-1.5,7H328l4.7-20.4c0.2-0.7,0.3-1.4,0.3-2.1c0-0.7-0.2-1.4-0.5-2c-0.4-0.5-1.1-0.8-1.8-0.8
				c-1.9,0-4.4,1.3-7.5,3.8l-3.3,14.5h4.4l-1.6,7h-18.1l1.6-7h3.6l7.6-33.1h-4.4l1.7-7h14.5l-4.4,18.5c2-1.4,4.2-2.7,6.4-3.6
				C332.9,68,334.5,67.6,336.2,67.6z"/>
			<path class="st0" d="M382.2,81.9c0,1.5-0.2,3.1-0.5,4.6h-23.3c-0.2,0.7-0.3,1.4-0.2,2.1c-0.1,1.8,0.5,3.5,1.6,4.8
				c1.1,1.3,2.8,1.9,4.5,1.9c2.8,0,5-1.4,6.7-4.2l7.4,3.3c-1.5,2.4-3.7,4.3-6.3,5.6c-2.7,1.2-5.6,1.9-8.5,1.8
				c-4.6,0-8.2-1.3-10.9-3.8c-2.7-2.6-4.1-6-4.1-10.4c0-3.5,0.8-6.9,2.3-10.1c1.5-3.1,3.8-5.6,6.6-7.5c3-1.9,6.5-2.9,10-2.8
				c2.6,0,5.2,0.6,7.5,1.8c2.2,1.2,4,3,5.2,5.2C381.7,76.5,382.3,79.2,382.2,81.9z M372.8,79.6c0.1-1.5-0.4-3-1.3-4.2
				c-1-1.1-2.4-1.6-3.9-1.6c-3.8,0-6.5,2.4-7.9,7.3h13C372.8,80.6,372.8,80.1,372.8,79.6z"/>
			<path class="st0" d="M449.3,66.4c0,2.1-0.4,4.1-1.3,6c-0.9,1.8-2.2,3.5-3.8,4.7c-1.6,1.2-3.6,2-5.6,2.1l4,14.2h4.7l-1.7,7.4h-12
				l-5.2-20.9h-6.6l-3.1,13.6h4.5l-1.8,7.4h-21l1.8-7.4h4.6l7.5-32.4h-4.6l1.6-7.3h23.1c4.7,0,8.4,1.1,11.1,3.3
				C448,59.2,449.3,62.3,449.3,66.4z M437.1,66.4c0.1-1.5-0.5-2.9-1.5-3.9c-1.1-1-2.6-1.5-4.1-1.4h-5.4l-3,12.7h5.1
				c2.9,0,5.1-0.6,6.6-1.9C436.4,70.5,437.2,68.5,437.1,66.4z"/>
			<path class="st0" d="M484.2,77.2c0,1.2-0.2,2.5-0.5,3.7l-3.1,13h5.5l-2,7H469l0.6-2.6c-3.2,2-6.2,3.1-8.9,3.1
				c-2.6,0.1-5.1-0.8-7-2.5c-1.9-1.7-2.9-4.1-2.8-6.6c0-4.1,1.5-7.1,4.5-9.1c3-2,7-3,11.9-3c1.4,0,2.8,0.1,4.2,0.4
				c1.2,0.3,1.9,0.5,2.1,0.5c0.1-0.3,0.2-0.9,0.4-1.6c0.2-0.6,0.3-1.2,0.3-1.8c0-1.2-0.6-2.3-1.6-2.9c-1.2-0.8-2.7-1.1-4.1-1.1
				c-2.7,0.1-5.3,0.9-7.7,2.2l-5-4.9c4.4-2.4,9.3-3.7,14.3-3.8c3.5-0.1,7,0.7,10.1,2.5C482.9,71.3,484.4,74.1,484.2,77.2z
				 M464.1,94.9c2,0,4.4-1,7-2.9l1.2-5.4c-1.6-0.4-3.3-0.7-5-0.7c-1.8-0.1-3.5,0.4-5,1.4c-1.3,0.8-2.1,2.3-2.1,3.8
				c0,1,0.4,1.9,1.1,2.6C462.1,94.6,463.1,95,464.1,94.9z"/>
			<path class="st0" d="M526.9,75.3c0,0.7-0.1,1.3-0.2,2c-0.1,0.7-0.3,1.7-0.7,3l-3.1,13.6h4.5l-1.6,7h-14.5l4.8-20.8
				c0.1-0.6,0.2-1.2,0.2-1.8c0-0.7-0.2-1.4-0.6-2c-0.5-0.5-1.1-0.8-1.8-0.8c-1.7,0-4.1,1.2-7.5,3.7L503,93.8h4.1l-1.6,7h-17.8l1.6-7
				h3.6l4.3-18.8h-4.9l1.6-7h15l-1,4.1c1.8-1.4,3.8-2.6,6-3.5c1.9-0.7,4-1,6-1c1.9-0.1,3.7,0.7,5,2.1
				C526.3,71.3,527,73.3,526.9,75.3z"/>
			<path class="st0" d="M558,73.4l1.3-5.4h13.9l-1.6,7H568l-5.8,24.8c-2.5,11-9.3,16.5-20.4,16.5c-5.2,0.1-10.3-1-15-3.2l3.1-7.3
				c3.3,1.7,7,2.6,10.8,2.8c2.1,0.1,4.3-0.3,6.2-1.1c1.5-0.8,2.8-2,3.6-3.5c1.1-2.1,1.8-4.4,2.3-6.7l-0.1-0.2c-2.9,2.7-5.8,4-8.9,4
				c-3.8,0-6.8-1.2-8.8-3.7c-2-2.4-3-5.7-3-9.9c0-3.3,0.7-6.6,2.1-9.6c1.4-2.9,3.5-5.5,6.1-7.4c2.6-1.9,5.7-2.9,8.8-2.8
				C552.8,67.7,555.9,69.6,558,73.4z M547.5,93.4c1.7,0,3.4-0.6,4.6-1.8c1.3-1.3,2.3-2.8,2.9-4.6c0.6-1.7,0.9-3.6,0.9-5.4
				c0.1-1.6-0.5-3.2-1.5-4.4c-1-1.1-2.4-1.8-3.9-1.7c-1.7,0-3.4,0.7-4.6,2c-1.3,1.3-2.4,3-3,4.7c-0.6,1.7-1,3.5-1,5.3
				c-0.1,1.6,0.4,3.1,1.4,4.3C544.5,92.9,546,93.5,547.5,93.4L547.5,93.4z"/>
			<path class="st0" d="M606.2,81.9c0,1.5-0.2,3.1-0.5,4.6h-23.3c-0.2,0.7-0.3,1.4-0.2,2.1c-0.1,1.8,0.5,3.5,1.7,4.8
				c1.1,1.3,2.8,1.9,4.5,1.9c2.8,0,5-1.4,6.7-4.2l7.4,3.3c-1.5,2.4-3.7,4.3-6.3,5.6c-2.7,1.2-5.6,1.9-8.5,1.8
				c-4.6,0-8.2-1.3-10.9-3.8c-2.7-2.6-4.1-6-4.1-10.4c0-3.5,0.8-6.9,2.3-10.1c1.5-3.1,3.8-5.6,6.6-7.5c3-1.9,6.5-2.9,10-2.8
				c2.6,0,5.2,0.6,7.5,1.8c2.2,1.2,4,3,5.2,5.2C605.7,76.5,606.3,79.2,606.2,81.9z M596.8,79.6c0.1-1.5-0.4-3-1.3-4.2
				c-1-1.1-2.4-1.6-3.8-1.6c-3.8,0-6.5,2.4-7.9,7.3h13C596.8,80.6,596.8,80.1,596.8,79.6z"/>
			<path class="st0" d="M639.9,68l-2,8.8c-1-0.2-2-0.4-3.1-0.4c-5.5,0-8.9,3.6-10.5,10.7l-1.6,6.8h5.1l-1.6,7h-19.1l1.6-7h4
				l4.3-18.9h-4.5l1.6-7.1h13.4l-2.2,9.6l0.1,0.1c1.9-3.7,3.8-6.3,5.5-7.8c1.7-1.5,3.9-2.2,6.1-2.2C638,67.7,638.9,67.8,639.9,68z"
				/>
			
				<linearGradient id="SVGID_1_" gradientUnits="userSpaceOnUse" x1="506.3953" y1="9.31" x2="506.3953" y2="173.31" gradientTransform="matrix(-1 0 0 -1 603.3 136)">
				<stop  offset="0" style="stop-color:#0F3A53"/>
				<stop  offset="0.33" style="stop-color:#18425C"/>
				<stop  offset="0.87" style="stop-color:#325872"/>
				<stop  offset="1" style="stop-color:#395E79"/>
			</linearGradient>
			<path class="st1" d="M64.6,129.1c14.6-5.5,27.5-14.8,37.3-26.8l0.9,0.9c0.2,0.2,4.1-4.7,4.4-5.1c8.1-11.4,11.8-26,14.2-39.6
				c1.1-6.1,1.8-12.3,2.1-18.5c0.1-2.6,0.9-10.1-2.6-10.8c-1.6-0.3-3.2-0.8-4.7-1.5C99.5,20,84,6,64.6,5.8V0
				c21.2,0.2,38.2,15.6,56.5,24c1.6,0.7,3.3,1.3,5.1,1.6c3.8,0.7,2.9,9,2.8,11.8c-0.2,6.8-1,13.6-2.2,20.3
				c-2.6,14.8-6.7,30.8-15.5,43.3c-0.3,0.5-4.6,5.8-4.8,5.6l-1-1c-16.9,20.5-37.7,28.2-40.9,29.3V129.1z"/>
			
				<linearGradient id="SVGID_2_" gradientUnits="userSpaceOnUse" x1="32.3203" y1="9.31" x2="32.3203" y2="173.31" gradientTransform="matrix(1 0 0 -1 0 136)">
				<stop  offset="0" style="stop-color:#0F3A53"/>
				<stop  offset="0.33" style="stop-color:#18425C"/>
				<stop  offset="0.87" style="stop-color:#325872"/>
				<stop  offset="1" style="stop-color:#395E79"/>
			</linearGradient>
			<path class="st2" d="M64.6,129.1c-14.6-5.5-27.5-14.8-37.3-26.8l-0.9,0.9c-0.2,0.2-4.1-4.7-4.4-5.1c-8.1-11.4-11.8-26-14.2-39.6
				c-1.1-6.1-1.8-12.3-2-18.5c-0.1-2.6-0.9-10.1,2.6-10.8c1.6-0.3,3.2-0.8,4.7-1.5C29.7,20,45.2,6,64.6,5.8V0
				C43.4,0.2,26.5,15.6,8.1,24c-1.6,0.7-3.3,1.3-5.1,1.6c-3.8,0.7-2.9,9-2.8,11.8c0.2,6.8,1,13.6,2.2,20.3
				C5,72.5,9.1,88.5,17.9,100.9c0.3,0.5,4.6,5.8,4.8,5.6l1-1c16.9,20.6,37.6,28.2,40.8,29.3L64.6,129.1z"/>
			
				<linearGradient id="SVGID_3_" gradientUnits="userSpaceOnUse" x1="64.58" y1="14.33" x2="64.58" y2="164.43" gradientTransform="matrix(1 0 0 -1 0 136)">
				<stop  offset="0" style="stop-color:#0F3A53"/>
				<stop  offset="0.33" style="stop-color:#18425C"/>
				<stop  offset="0.87" style="stop-color:#325872"/>
				<stop  offset="1" style="stop-color:#395E79"/>
			</linearGradient>
			<path class="st3" d="M121,29.2c-1.6-0.3-3.2-0.8-4.7-1.5C100.6,20.6,86.1,7.9,68.5,6.1c-1.2-0.2-2.3-0.3-3.5-0.3
				c-19.6,0-35.2,14.2-52.1,22c-1.5,0.7-3.1,1.2-4.7,1.5c-3.5,0.6-2.6,8.2-2.6,10.7c0.2,6.2,0.9,12.4,2,18.5
				C10.1,72,13.8,86.6,21.9,98c0.3,0.4,4.4,5.1,4.4,5.1l0.9-0.9C44,122.6,65,129.1,65,129.1l1.9-0.8c13.5-5.9,25.4-14.8,34.9-26.1
				l1,1c0,0,4.1-4.7,4.4-5.1c8.1-11.4,11.8-26,14.2-39.6c1.1-6.1,1.8-12.3,2-18.5C123.6,37.5,124.4,30,121,29.2z"/>
			<g class="st4">
				<path class="st5" d="M90.9,72.6c0,2.1-0.4,4.1-1.3,6c-0.9,1.9-2.2,3.4-3.8,4.7c-1.6,1.2-3.5,1.9-5.6,2.1l4,14.2h4.6l-1.7,7.4
					H75.1L69.9,86h-6.6l-3.1,13.5h4.5l-1.8,7.4h-21l1.7-7.4h4.6l7.5-32.3h-4.6l1.7-7.3h23.1c4.7,0,8.4,1.1,11,3.3
					C89.5,65.4,90.9,68.5,90.9,72.6z M78.7,72.5c0-1.7-0.5-3-1.5-3.9s-2.4-1.4-4.1-1.4h-5.4l-3,12.7h5.1c2.9,0,5.1-0.6,6.6-1.9
					C77.9,76.9,78.7,75,78.7,72.5z"/>
			</g>
			<path class="st5" d="M94.8,46.8c-2.6,4.1-6.6,6.3-10.5,8.8c-1.3,0.8-2.8,1.5-4.3,2.3c-0.3-0.7-0.6-1.5-0.8-2.3
				c-0.9-4.2-4-5-7.8-4.8c-1.4,0.1-2.7,0.3-4,0.8c-6.2,2.1-12.4,4.2-18.6,6.3c-3,1-5.4,2.8-6.4,6c-0.7,2.2,0,4.2,0.9,6.5
				c-2.6,0.3-5.1,0.8-7.6,1c-3,0.2-6,0.6-9.1-0.3s-3.7-2.7-1.9-5.2c2.3-3,5.5-5,8.7-6.8c10.7-6,22.2-10.6,34.1-13.5
				c5.4-1.4,10.9-2.9,16.5-3c2.5,0,5.1,0.3,7.6,0.4c1.7,0.1,2.5,1.1,3.2,2.4L94.8,46.8z"/>
			<path class="st5" d="M76.9,40.5c-15,2.1-29.1,6.1-42,14.1c-1.3-2.3-1.1-5.1,0.6-7.2c1.4-2.1,2.5-4.3,3.5-6.6
				c0.4-0.7,0.5-1.6,0.4-2.4c-0.6-2.3,0.7-3.8,2.2-5.1c4.2-3.7,9.4-5.2,14.8-5.8c0.5-0.1,1.1-0.1,1.6-0.1c1.9,0,3.7,0,5.1,2
				c2.1,2.8,4.8,4.8,8.5,5.2c2.6,0.2,3.1,2.8,4.4,4.4C76.4,39.5,76.7,40,76.9,40.5z"/>
			<path class="st6" d="M32.7,26c-0.4-0.3-0.7-0.6-1.1-0.9c-0.2-0.1-0.3-0.2-0.4-0.3c-0.3,0.1-0.5,0.4-0.6,0.7
				c-0.2-0.1-0.4-0.2-0.5-0.4c-0.2,0.2-0.4,0.5-0.5,0.8c0,0.4,0.1,0.7,0.3,1c0.2,1.4,0.4,2.8,0.8,4.1c0.6,0.7,1.3,1.3,2.1,1.9
				c-0.7,0-1.3-0.8-1.3-0.8s1,1.9,1.4,2.5s1.9,4.5,1.9,4.5c1,0.9,2.1,1.7,3.2,2.4c-0.9,0.3-2.5-1.4-2.5-1.4s1.1,1.8,1.4,1.8
				s1.9,1.1,2.2,1.1c1,1.4,1.7,2.9,2.2,4.5c0.2,1.5,0.3,0,0.3-0.3s-1.9-4.8-1.9-4.8c0.6-1.1,0.9-2.3,0.8-3.6c-0.4-1.8-1-3.5-1.8-5.1
				c0,0-0.5,1-0.8,1.4c0.1-0.7,0.3-1.4,0.3-2.2c-0.7-1-1.3-2-1.9-3C35.3,28.5,34.1,27.2,32.7,26z M38.1,38.7c0.3,1,0.5,2,0.6,3l0,0
				c-0.1-0.3-0.8-2.1-1-2.8s-6.8-12.4-6.8-12.4C32.4,28.1,37.6,37.3,38.1,38.7L38.1,38.7z"/>
		</g>
	</g>
</g>
</svg>
