<svg xmlns="http://www.w3.org/2000/svg" width="80" height="80" viewBox="0 0 80 80" fill="none">
  <!-- Background shape for depth -->
  <rect x="10" y="5" width="60" height="70" rx="2" fill="#e0edd2" />
  
  <!-- Server Rack Main Body -->
  <rect x="15" y="10" width="50" height="60" rx="2" fill="#357500" stroke="#255200" stroke-width="1.5" />
  
  <!-- Server Units -->
  <rect x="17" y="15" width="46" height="8" rx="1" fill="#306900" stroke="#255200" stroke-width="0.75" />
  <rect x="17" y="25" width="46" height="8" rx="1" fill="#3a8100" stroke="#255200" stroke-width="0.75" />
  <rect x="17" y="35" width="46" height="8" rx="1" fill="#306900" stroke="#255200" stroke-width="0.75" />
  <rect x="17" y="45" width="46" height="8" rx="1" fill="#3a8100" stroke="#255200" stroke-width="0.75" />
  <rect x="17" y="55" width="46" height="8" rx="1" fill="#306900" stroke="#255200" stroke-width="0.75" />
  
  <!-- Server Front Details - Top Server -->
  <rect x="20" y="17" width="15" height="4" rx="0.5" fill="#255200" />
  <circle cx="38" cy="19" r="1" fill="#96d26e" />
  <circle cx="42" cy="19" r="1" fill="#d1e4bc" />
  <rect x="45" y="17" width="15" height="4" rx="0.5" fill="#255200" />
  
  <!-- Server Front Details - Second Server -->
  <rect x="20" y="27" width="15" height="4" rx="0.5" fill="#255200" />
  <circle cx="38" cy="29" r="1" fill="#96d26e" />
  <circle cx="42" cy="29" r="1" fill="#d1e4bc" />
  <rect x="45" y="27" width="15" height="4" rx="0.5" fill="#255200" />
  
  <!-- Server Front Details - Third Server -->
  <rect x="20" y="37" width="15" height="4" rx="0.5" fill="#255200" />
  <circle cx="38" cy="39" r="1" fill="#96d26e" />
  <circle cx="42" cy="39" r="1" fill="#d1e4bc" />
  <rect x="45" y="37" width="15" height="4" rx="0.5" fill="#255200" />
  
  <!-- Server Front Details - Fourth Server -->
  <rect x="20" y="47" width="15" height="4" rx="0.5" fill="#255200" />
  <circle cx="38" cy="49" r="1" fill="#96d26e" />
  <circle cx="42" cy="49" r="1" fill="#d1e4bc" />
  <rect x="45" y="47" width="15" height="4" rx="0.5" fill="#255200" />
  
  <!-- Server Front Details - Bottom Server -->
  <rect x="20" y="57" width="15" height="4" rx="0.5" fill="#255200" />
  <circle cx="38" cy="59" r="1" fill="#96d26e" />
  <circle cx="42" cy="59" r="1" fill="#d1e4bc" />
  <rect x="45" y="57" width="15" height="4" rx="0.5" fill="#255200" />
  
  <!-- Rack Mount Holes -->
  <circle cx="16" cy="15" r="1" fill="#d1e4bc" />
  <circle cx="16" cy="25" r="1" fill="#d1e4bc" />
  <circle cx="16" cy="35" r="1" fill="#d1e4bc" />
  <circle cx="16" cy="45" r="1" fill="#d1e4bc" />
  <circle cx="16" cy="55" r="1" fill="#d1e4bc" />
  <circle cx="16" cy="65" r="1" fill="#d1e4bc" />
  
  <circle cx="64" cy="15" r="1" fill="#d1e4bc" />
  <circle cx="64" cy="25" r="1" fill="#d1e4bc" />
  <circle cx="64" cy="35" r="1" fill="#d1e4bc" />
  <circle cx="64" cy="45" r="1" fill="#d1e4bc" />
  <circle cx="64" cy="55" r="1" fill="#d1e4bc" />
  <circle cx="64" cy="65" r="1" fill="#d1e4bc" />
  
  <!-- Subtle Reflection/Highlight -->
  <rect x="17" y="11" width="46" height="1" fill="#e0edd2" opacity="0.4" />
  
  <!-- Front Rack Rails -->
  <rect x="15" y="10" width="1" height="60" fill="#459800" />
  <rect x="64" y="10" width="1" height="60" fill="#459800" />
  
  <!-- Bottom Feet of Rack -->
  <rect x="12" y="70" width="5" height="2" rx="1" fill="#255200" />
  <rect x="63" y="70" width="5" height="2" rx="1" fill="#255200" />
</svg>