<?xml version="1.0" encoding="UTF-8"?>
<svg xmlns="http://www.w3.org/2000/svg" viewBox="0 0 70 70">
  <linearGradient id="a" gradientUnits="userSpaceOnUse" x1="27.837" y1="13.699" x2="62.199" y2="48.062">
    <stop offset="0" stop-color="#FCBF12"/>
    <stop offset="1" stop-color="#F57A12"/>
  </linearGradient>
  <linearGradient id="b" gradientUnits="userSpaceOnUse" x1="25.464" y1="7.464" x2="49.642" y2="31.642">
    <stop offset="0" stop-color="#9271F2"/>
    <stop offset="1" stop-color="#7A55C7"/>
  </linearGradient>
  <linearGradient id="c" gradientUnits="userSpaceOnUse" x1="14.286" y1="29.259" x2="43.175" y2="58.149">
    <stop offset="0" stop-color="#07C3F2"/>
    <stop offset="1" stop-color="#2EB9ED"/>
  </linearGradient>
  <path d="M49.3 14.3L65 30.8 58 42.7 39.5 35.1 33.9 21.4z" fill="url(#a)"/>
  <path d="M45.5 5.7L17.1 12.3 15.3 29.9 24.4 37.3 39.8 24.7 49.8 14.8z" fill="url(#b)"/>
  <path d="M5 52.2l15.5 12.1L39 51.7l-3.5-14.9-21-2.3z" fill="url(#c)"/>
  <path d="M15.5 15.5h39v39h-39z"/>
  <path d="M19 54h32V19.5H19V54z" fill="#fff"/>
  <path d="M32.8 25.2h-8.9v2.3h8.9v-2.3zm0 10.2h-8.9v2.3h8.9v-2.3zm-8.9 10.2h4.7v-2.3h-4.7v2.3zm20.2 0H25.7c-.6 0-1.1 0-1.7-.2-.6-.1-1.1-.3-1.6-.5l-1.2-.8c-.3-.3-.6-.7-.9-1.2-.2-.5-.4-1-.5-1.6-.1-.6-.2-1.2-.2-1.9 0-.9.1-1.7.2-2.4.2-.7.4-1.3.8-1.9.4-.5.8-1 1.3-1.3.5-.3 1.1-.6 1.8-.7.7-.2 1.4-.2 2.2-.2v-.4l-5-3.6 6.1-6.8 3.2 2.5c.7-1.1 1.5-1.9 2.4-2.6s2-1 3.5-1h2v3.4h-2c-.9 0-1.7.3-2.4.9-.7.6-1.2 1.3-1.5 2.1l1.7 1.3v-1.1h10.8v14.3zm-14.2-8.1c0 .5 0 .9.1 1.3.1.4.2.7.4 1 .2.3.4.5.6.7.2.2.5.3.9.4.3.1.7.1 1.1.1h6.1v-7.5h-6.1c-.5 0-1 .1-1.3.3-.4.2-.7.5-.9.8-.2.3-.4.7-.5 1.2-.3.5-.4 1.1-.4 1.7z" fill="#fff"/>
</svg>