<?xml version="1.0" encoding="UTF-8"?>
<svg xmlns="http://www.w3.org/2000/svg" viewBox="0 0 200 100" width="200" height="100">
    <title>Filesystem vs Key/Value Namespace</title>
    <desc>Comparison of filesystem and bucket storage models</desc>
    
    <!-- Left Side: Folder/Filesystem -->
    <g transform="translate(0, 0) scale(6)">
        <!-- Folder icon from namespace.svg -->
        <path d="M.54 3.87.5 3a2 2 0 0 1 2-2h3.672a2 2 0 0 1 1.414.586l.828.828A2 2 0 0 0 9.828 3h3.982a2 2 0 0 1 1.992 2.181l-.637 7A2 2 0 0 1 13.174 14H2.826a2 2 0 0 1-1.991-1.819l-.637-7a2 2 0 0 1 .342-1.31zM2.19 4a1 1 0 0 0-.996 1.09l.637 7a1 1 0 0 0 .995.91h10.348a1 1 0 0 0 .995-.91l.637-7A1 1 0 0 0 13.81 4zm4.69-1.707A1 1 0 0 0 6.172 2H2.5a1 1 0 0 0-1 .981l.006.139q.323-.119.684-.12h5.396z" fill="#357500"/>
    </g>
    

    <!-- Right Side: Bucket -->
    <g transform="translate(110, 0) scale(0.180)">
        <!-- Bucket icon from bucket.svg -->
        <path d="M453.821,30.5H115.726c-32.116,0-58.248,26.132-58.248,58.179c0,16.343,6.618,31.346,17.891,42.048
        l2.463,29.371l1.197,15.078l-0.846-0.991c-22.679,20.148-41.766,42.124-55.572,63.888c-6.83,10.916-12.396,21.764-16.344,32.543
        c-3.942,10.778-6.266,21.413-6.266,32.047c-0.069,11.342,2.889,22.96,9.857,32.611c6.906,9.72,17.403,16.695,29.653,20.636
        c4.726,1.554,9.513,2.119,14.163,2.119c11.762-0.076,23.243-3.453,35.5-8.454c21.413-8.873,45.289-23.6,70.01-41.21
        c30.362-21.688,75.3-60.641,107.767-90.576c-11.405-4.437-20.285-14.019-23.876-25.85c-26.978,25.073-59.444,53.674-82.763,71.702
        c-22.397,17.258-44.587,32.542-63.813,43.177c-9.582,5.352-18.386,9.513-25.85,12.189c-7.401,2.744-13.53,3.872-16.976,3.804
        c-1.692,0-2.752-0.214-3.171-0.358c-6.831-2.318-10.07-5-12.045-7.745c-1.974-2.82-3.239-6.342-3.239-12.044
        c-0.069-5.214,1.197-12.114,4.154-19.934c4.223-11.831,12.044-25.705,22.754-39.868c5.984-7.959,12.884-16.055,20.491-24.02
        l1.624,19.088l4.787,56.913l0.633-0.351c9.162-5.069,19.302-11.411,30.218-18.875l-5.703-68.957l-1.196-14.301l-5.427-65.367
        h356.619l-22.115,267.171c-2.607,31.064-28.526,54.939-59.727,54.939h-192.93c-31.132,0-57.12-23.875-59.658-54.939L127,361.194
        l-1.204-14.294c-11.198,6.48-21.482,11.694-31.201,15.704l0.144,1.273l2.676,32.962c3.942,47.476,44.374,84.661,91.988,84.661
        h192.93c47.683,0,88.115-37.186,91.987-84.661l22.26-268.718C506.366,117.555,512,103.612,512,88.679
        C512,56.632,485.944,30.5,453.821,30.5z M468.052,110.092H101.356c-6.899-4.65-11.48-12.471-11.48-21.413
        c0-14.232,11.549-25.781,25.849-25.781h338.095c14.232,0,25.781,11.55,25.781,25.781
        C479.602,97.621,474.952,105.442,468.052,110.092z" fill="#679f44"/>
        <circle cx="281.788" cy="180.15" r="21.131" fill="#679f44"/>
    </g>
    
</svg>