<?xml version="1.0" encoding="UTF-8"?>
<svg xmlns="http://www.w3.org/2000/svg" viewBox="0 0 300 165" width="300" height="165">
    <title>Ozone Replication Types</title>
    <desc>Comparison of replication and erasure coding replication strategies in Apache Ozone.</desc>

    <!-- Left Side: Stacked Rectangles (3 copies) -->
    <g transform="translate(30, 15)">
        <!-- Bottom rectangle -->
        <rect x="10" y="75" width="90" height="20" rx="3" fill="#84ca56" fill-opacity="0.3" stroke="#357500" stroke-width="2"/>

        <!-- Middle rectangle -->
        <rect x="20" y="45" width="90" height="20" rx="3" fill="#84ca56" fill-opacity="0.3" stroke="#357500" stroke-width="2"/>

        <!-- Top rectangle -->
        <rect x="30" y="15" width="90" height="20" rx="3" fill="#84ca56" fill-opacity="0.3" stroke="#357500" stroke-width="2"/>
    </g>

    <!-- Right Side: Erasure Coding -->
    <g transform="translate(150, 10) scale(0.8, 1.2)">
        <!-- Original Object -->
        <rect x="20" y="10" width="75" height="20" fill="#306900" rx="2"/>

        <!-- Lines showing splitting from the object -->
        <line x1="40" y1="30" x2="15" y2="60" stroke="#357500" stroke-width="1.5"/> <!-- Data line -->
        <line x1="50" y1="30" x2="45" y2="60" stroke="#357500" stroke-width="1.5"/> <!-- Data line -->
        <line x1="60" y1="30" x2="75" y2="60" stroke="#357500" stroke-width="1.5"/> <!-- Data line -->
        <line x1="65" y1="30" x2="105" y2="60" stroke="#96d26e" stroke-width="1.5"/> <!-- Parity line -->
        <line x1="70" y1="30" x2="135" y2="60" stroke="#96d26e" stroke-width="1.5"/> <!-- Parity line -->

        <!-- Data Fragments -->
        <rect x="5" y="60" width="20" height="20" fill="#357500" rx="1"/>
        <rect x="35" y="60" width="20" height="20" fill="#357500" rx="1"/>
        <rect x="65" y="60" width="20" height="20" fill="#357500" rx="1"/>

        <!-- Parity Fragments -->
        <rect x="95" y="60" width="20" height="20" fill="none" stroke="#96d26e" stroke-width="1.5" rx="1"/>
        <rect x="125" y="60" width="20" height="20" fill="none" stroke="#96d26e" stroke-width="1.5" rx="1"/>
    </g>
</svg>